<svg id="Layer_1" data-name="Layer 1" xmlns="http://www.w3.org/2000/svg" viewBox="0 0 1080 1080">
  <defs>
    <style>
      .cls-1 {
        fill: #ff8c30;
      }
    </style>
  </defs>
  <path class="cls-1" d="M600.57,579.35c1.31-8.85-2.32-14.93-4.76-21.25-4.67-12.08-9.65-24.05-11.79-36.92a67,67,0,0,1-1.08-10.27c-.09-9.41,1.67-11.85,11.12-11.84,12.5,0,25,1.32,37.5,1.84,5.69.24,8.32,4.1,10.72,8.23a62.92,62.92,0,0,0,12.13,15.07c1.58,1.44,3.53,2.69,5.81,1.37s2-3.53,1.79-5.69c-.1-.86-.31-1.7-.44-2.55-2.62-17-2.32-17,14.44-13.31,55,12.09,108.75,27.9,160.07,51.3,19.63,8.95,39.36,17.76,58,28.79,1.86,1.1,3.85,2,5.61,3.24,3.66,2.54,7.25,5.77,6.37,10.45s-5.84,4.38-9.46,5.19c-29.51,6.64-58.88,13.69-87.11,24.88A386.16,386.16,0,0,0,773,644.6c-13,6.77-26.58,12.22-39,20.18-36.48,23.32-68,51.64-91.61,88.28a49.06,49.06,0,0,1-7.23,9.09c-7.57,7.18-15.71,9.39-25.9,4.28a498.83,498.83,0,0,0-49.72-22,424.46,424.46,0,0,0-153.56-27c-37.28.41-74.12,4.76-110.07,15.15a93.81,93.81,0,0,1-11.36,2.58c-16,2.54-24.82-2.92-28.29-18.79-3.12-14.31-5.52-28.82-7.44-43.34-2.77-21-6.3-41.82-10.79-62.47-3.53-16.28-9.7-21.56-26.28-23.77-16.27-2.15-32.58-4-48.87-6.08-3.84-.49-8.26-.24-11.37-2.09-9.13-5.41-19.25-5-29-5.34-26.83-1-53.1-6.27-79.57-9.81-15.23-2-24-17.28-19-30.48,3-8,10.42-11.29,17.22-14.78,10.36-5.32,21.09-9.94,31.69-14.81q154.84-71.1,309.69-142.18c29-13.33,58.59-25.7,87-40.25,19-9.72,38.42-10.87,58.67-9.83,30.2,1.54,60.39,3.25,90.58,4.81q74.41,3.85,148.85,7.58c59.53,2.91,119.08,5.61,178.61,8.5,28,1.36,56.08,2.9,84.11,4.46,8.42.47,16.5,2.58,21.95,9.47,9,11.29,5.9,25.64-7.21,33C1027,389,1008.6,398.51,990.32,408.3q-42.26,22.62-84.49,45.29c-.38.2-.75.43-1.12.64-22.52,12.61-27.63,23.31-16.71,47.45,8.36,18.47,15.64,37.44,23.21,56.26,1.23,3,3.69,5.94,2.29,10.37-5.33,1.6-9.66-2-14.07-3.91-64.61-28.41-131-51.41-200.1-66.21-8.86-1.89-17.72-3.82-26.6-5.6-13.6-2.71-13.63-2.67-9.15-15.11,1.58-4.37,3.75-8.65.64-15-6.91,5.95-13.65,11.15-19.63,17.11-3.92,3.9-7.83,6.65-13.49,6.28-12.92-.85-25.85-1.59-38.76-2.58-4.57-.35-6.85-3.56-7.11-7.86a36.75,36.75,0,0,1,3.68-18.84c5.92-12,11.44-24.2,18.38-35.67,1.79-2.95,3.32-6.07,4.81-9.18.95-2,1.47-4.19-.25-6-2.3-2.46-4.81-1.09-7,.12a34.3,34.3,0,0,0-6.38,4.4c-6.89,6.15-13.63,11.68-24.14,9.3-4.2-.95-5.89,3.18-3.58,6.81,1.64,2.56,8,3,4.91,7.39-3.5,4.95-6.37,11.81-14.67,10.75-3.83-.49-7.69-.6-11,1.3-1.56,3.51,1.23,4.94,2.58,7,1,1.42,1.85,2.78,1.57,4.73-.9,6.15-17.23,19.35-23.7,19-11.65-.55-23.29-1.46-34.94-1.5-8,0-11.84,5.43-9.14,11.61,1.54,3.51,4.7,5.12,8.17,5.68,5.09.83,10.27,1.21,15.41,1.68,3,.28,6.08.79,9.05.49,15.59-1.55,23.23,8.3,29.66,20.15,1.39,2.56,1.23,4.25-.5,6.86-4.42,6.68-3.88,8.49,4.11,9.32,6.65.68,9.8,4.42,13.1,9.11,2.93,4.17,4.51,7.5-2,9.75-2.33.8-4.94,2.59-3.93,5.74.7,2.2,3.14,2.94,5.33,3,8.92.4,15.18,5.53,21,11.48C589.64,573.92,593.84,577.5,600.57,579.35Z"/>
</svg>
