<svg id="Layer_1" data-name="Layer 1" xmlns="http://www.w3.org/2000/svg" viewBox="0 0 2792.47 2374.68">
  <defs>
    <style>
      .cls-1, .cls-2 {
        fill: #ff8c30;
        fill-rule: evenodd;
      }

      .cls-1 {
        fill-opacity: 0.3;
      }
    </style>
  </defs>
  <g>
    <path class="cls-1" d="M1906.59,1180.3c-45.83-174.23-98.77-455.1-195.27-590.95s-269-118.25-443.65-99.54c-173.89,17.26-347.15,36.33-521,53.59s-347.15,36.33-479-29.54C136.47,446.54,48,297.92,3.09,221.79L0,216.6v607l98.1,25.66L534.38,963.37l436.27,114.11,264.49,69.18c145.88,38.16,63.27,162.95,384.81,247l555.23,145.23C2101.56,1519.68,1959.13,1380,1906.59,1180.3Z"/>
    <path class="cls-2" d="M1831.7,1328.47c-80.93-166.66-96.3-460-192.16-597.12S1370.8,612.56,1195.8,632c-174.25,18-347.88,37.78-522.13,55.75S325.79,725.54,194.1,659.32C112.71,617.25,48,543.36,0,475V993.19l22.39,5.86,436.28,114.12L895,1227.28l436.27,114.11L1767.5,1455.5l364,95.21C2057.9,1531.46,1913.38,1493.66,1831.7,1328.47Z"/>
    <path class="cls-2" d="M2282.72,1490.51,1819.6,1369.37l-463.12-121.13L893.36,1127.1,430.24,1006,43.82,904.9,0,893.44v481.33c84.81-20.23,176.4-34.37,258.54-29.07,169,12.44,293.33,110.17,419.82,206.81s250.78,194.36,377.27,291c125.74,98.11,250.78,194.36,455.65,135.9s487.44-273.87,707.24-361.88c219.07-86.52,372.48-46.39,450.63-26Z"/>
    <path class="cls-1" d="M2130.85,1467.15c-341.33-89.28-388.36,44.82-543.21,4.32L1306.88,1398,843.76,1276.9,380.64,1155.76,0,1056.2V1509c70.73-14,144-22.35,211.13-17.86C380,1504,504.65,1601,631.5,1696.87S883,1889.78,1009.87,1985.7c126.11,97.38,251.51,192.91,455.75,135.72s506.16-245.25,704.12-355.71c226.93-126.63,472.36-164.84,550.52-144.39Z"/>
  </g>
</svg>
