<svg id="Layer_1" data-name="Layer 1" xmlns="http://www.w3.org/2000/svg" viewBox="0 0 2792.47 2374.68">
  <defs>
    <style>
      .cls-1, .cls-2 {
        fill: #ff8c30;
        fill-rule: evenodd;
      }

      .cls-1 {
        fill-opacity: 0.3;
      }
    </style>
  </defs>
  <path class="cls-1" d="M1884.48,2095.67c-88.42-157-210.7-415.3-338.43-522.32s-290.19-46.33-454.4,16C927.79,1650,765,1712.28,601.13,1773s-326.66,123-470.91,92.63C84.27,1855.39,40.43,1836.07,0,1812.46V2233H502l451,0h273.38c150.79,0,102.43,141.64,434.8,141.65l573.91,0C2159,2374.68,1985.85,2275.61,1884.48,2095.67Z"/>
  <path class="cls-2" d="M1849.52,2235.53c-120.46-140.77-209.55-420.67-337-529.08s-290.06-46.93-454.44,16.16c-164,61.48-327,124.57-491,186.05s-327,124.57-471.16,93.82C62.65,1995,30.52,1982.67,0,1967.36V2374.6H15.74l451,0h451l451,0,451,0h376.26C2119.72,2374.68,1970.34,2374.67,1849.52,2235.53Z"/>
</svg>
