<svg id="Layer_1" data-name="Layer 1" xmlns="http://www.w3.org/2000/svg" viewBox="0 0 3089.45 3408.36">
  <defs>
    <style>
      .cls-1, .cls-2 {
        fill: #ff8c30;
        fill-rule: evenodd;
      }

      .cls-1 {
        fill-opacity: 0.3;
      }
    </style>
  </defs>
  <g>
    <path class="cls-1" d="M3089.45,488.65c-122.39,102.72-307,128.62-491.72,156.58-192.71,29.17-385.31,56-578,85.21-194,27.68-385.31,56-447.64,241.88s-33.21,528.48-29.15,744.71c4.66,247.88-106,451.17-179.45,494.51l553.88-326.82c320.77-189.27,193.44-311.42,339-397.29l263.84-155.67L2955.36,1075l134.09-79.12Z"/>
    <path class="cls-2" d="M3089.45,710.8c-108.3,44.83-238.51,63-368.8,82.15-193.31,28.43-386.53,54.55-579.85,83-194.58,26.92-386.55,54.55-447.8,241.68s12.2,533.67-23.9,751c-37.35,215.85-181.51,300.91-255,344.25l363.14-214.27,435.22-256.8L2647.71,1485l435.23-256.8,6.51-3.84Z"/>
    <path class="cls-1" d="M3089.45,1415.06l-423.26,132.3-632.54,197.71-383.46,119.86c-211.51,66.11-263.51-95.65-729.71,50.07l-805,251.62c106.75-33.36,433.41-10.95,727.82,123.18,256.82,117,646.9,319.76,916.61,370s446.23-81.27,623.85-215.08c178.49-132.08,354.16-265.28,532.64-397.36,57.37-42.45,114.45-85,173.07-124.32Z"/>
    <path class="cls-2" d="M3089.45,1208.84,2577,1369l-632.53,197.71-632.55,197.72L679.33,1962.17l-527.78,165c106.74-33.36,316.28-98.85,603.46-13.73,288.06,86.87,649.82,325.59,920.28,377.3s446.56-80.6,623.74-215.3c178.07-132.93,353.28-267,531.36-399.93,85-63.44,169.31-127.11,259.06-179.93Z"/>
  </g>
</svg>
